# xmcd
#
# Track frame offsets: 
#        150
#        18366
#        38589
#        58761
#        82977
#        109835
#        137369
#        163047
#        182337
#        197157
#        215355
#        241531
#        255742
#        275180
#        297314
#        311311
#
# Disc length: 4341 seconds
#
# Revision: 0
# Processed by: cddbd v1.5.1PL2 Copyright (c) Steve Scherf et al.
# Submitted via: ExactAudioCopy v0.95b3
#
DISCID=d610f310
DTITLE=Free - Fire and Water and Highway
DYEAR=1970
DGENRE=Blues
TTITLE0=Fire and Water
TTITLE1=Oh I Wept
TTITLE2=Remember
TTITLE3=Heavy Load
TTITLE4=Mr. Big
TTITLE5=Don't Say You Love Me
TTITLE6=All Right Now
TTITLE7=The Highway Song
TTITLE8=The Stealer
TTITLE9=On My Way
TTITLE10=Be My Friend
TTITLE11=Sunny Day
TTITLE12=Ride on a Pony
TTITLE13=Love You So
TTITLE14=Bodie
TTITLE15=Soon I Will Be Gone
EXTD=2 in 1 edition: Fire and Water (1970) and Highway (1971)
EXTT0=
EXTT1=
EXTT2=
EXTT3=
EXTT4=
EXTT5=
EXTT6=
EXTT7=
EXTT8=
EXTT9=
EXTT10=
EXTT11=
EXTT12=
EXTT13=
EXTT14=
EXTT15=
PLAYORDER=
